<?xml version="1.0" encoding="UTF-8"?>
<svg width="121px" height="26px" viewBox="0 0 121 26" version="1.1" xmlns="http://www.w3.org/2000/svg" xmlns:xlink="http://www.w3.org/1999/xlink">
    <title>logo</title>
    <g id="Symbols" stroke="none" stroke-width="1" fill="none" fill-rule="evenodd">
        <g id="logo" transform="translate(-0.000257, 0.000643)">
            <path d="M34.2639948,16.5801245 L34.2639948,20.76759 L31.1793744,23.7067945 L27.1373248,23.7067945 L34.2639948,16.5801245 Z M0.000257373421,16.5801245 L7.1269274,23.7067945 L3.1093283,23.7067945 L0.000257373421,20.7907536 L0.000257373421,16.5801245 Z M34.2641235,0 L34.2641235,3.78081555 L19.0134615,19.0314776 L21.2757738,21.2770607 L34.2641235,8.28999789 L34.2641235,12.0721003 L34.192059,12.1441649 L22.6269843,23.7066658 L19.9271371,23.7066658 L17.1320618,20.9128773 L14.3369864,23.7066658 L11.6358524,23.7066658 L11.5637878,23.6346012 L-1.42108547e-14,12.0721003 L-1.42108547e-14,8.28999789 L12.9870628,21.2770607 L15.2506621,19.0314776 L-1.42108547e-14,3.78081555 L-1.42108547e-14,0 L17.1320618,17.1320618 L34.2641235,0 Z" id="Combined-Shape" fill="#ED7291"></path>
            <path d="M83.2063819,5.20807986 L88.6871489,19.0406144 L86.3373296,25.0206858 L83.2063819,25.0206858 L85.7003304,19.2027596 L80.0188121,5.20807986 L83.2063819,5.20807986 Z M101.532142,4.86216998 C103.237241,4.86216998 107.199504,5.54034894 107.199504,8.90808016 C107.199504,10.5153772 106.562505,11.7623514 105.288507,12.6219786 C104.123892,13.4520079 102.46126,13.867666 100.355945,13.9230013 L100.355945,13.9230013 L97.141351,14.0066476 L97.141351,14.5883116 C97.141351,16.5842424 98.2210325,17.5815644 100.382969,17.5815644 C101.297932,17.5815644 102.045602,17.4142717 102.600241,17.08226 C103.163889,16.752822 103.547375,16.2831155 103.751987,15.658985 L103.751987,15.658985 L106.732372,15.658985 C106.414515,17.159472 105.648829,18.2906282 104.457191,18.9945445 C103.404533,19.6598548 101.963242,19.9648423 100.189939,19.9648423 C98.0833378,19.9648423 96.531376,19.4372268 95.534054,18.3845695 C94.6744268,17.4708939 94.2317445,16.1402733 94.2317445,14.3939946 L94.2317445,14.3939946 L94.1519587,12.2088943 C94.1519587,8.13853363 95.8673526,4.86216998 101.532142,4.86216998 Z M74.0118451,4.69616412 C76.1184466,4.69616412 77.6704083,5.22377964 78.6677303,6.27643693 C79.5273575,7.19011257 79.9700398,8.52073316 79.9700398,10.2670118 L79.9700398,10.2670118 L80.0498256,12.4521122 C80.0498256,16.5237597 78.3344317,19.7988365 72.6696427,19.7988365 C70.963257,19.7988365 67.0009932,19.1206575 67.0009932,15.7529263 C67.0009932,14.1456293 67.6392792,12.898655 68.9132777,12.0403147 C70.0766055,11.2089985 71.7392378,10.7933405 73.8458393,10.7380052 L73.8458393,10.7380052 L77.0604333,10.6543588 L77.0604333,10.0726949 C77.0604333,8.07676401 75.9794649,7.079442 73.8175282,7.079442 C72.9038526,7.079442 72.1548959,7.24673472 71.601543,7.57874644 C71.0378953,7.90818442 70.6544089,8.37789091 70.449797,9.00202145 L70.449797,9.00202145 L67.4694128,9.00202145 C67.787269,7.50282128 68.5529549,6.37166509 69.7445938,5.66646192 C70.7972511,5.00115163 72.2385423,4.69616412 74.0118451,4.69616412 Z M115.495937,4.8203468 C119.043829,4.8203468 120.844156,6.75965552 120.844156,10.6948951 L120.844156,19.5343853 L117.907525,19.5343853 L117.907525,10.9445473 C117.907525,8.50593419 116.771222,7.28727104 114.55395,7.28727104 C113.722634,7.28727104 112.974964,7.5626606 112.364989,8.17392247 C111.699679,8.8379459 111.284021,9.75290841 111.17335,10.9162363 L111.17335,19.5343853 L108.235432,19.5343853 L108.235432,5.2076938 L111.17335,5.2076938 L111.17335,6.98099667 C111.72799,6.26163796 112.364989,5.73530931 113.085634,5.37498652 C113.80628,4.98635266 114.609285,4.8203468 115.495937,4.8203468 Z M60.7744867,4.41138043 C62.2440889,4.41138043 63.462752,4.88366066 64.4330498,5.88098267 C65.3750366,6.8499936 65.874341,8.1252789 65.874341,9.73257591 L65.874341,19.1279926 L62.9364234,19.1279926 L62.9364234,10.2318803 C62.9364234,9.06726562 62.6867712,8.20892526 62.1874667,7.68130974 C61.6894492,7.12795689 60.858133,6.87830467 59.7488536,6.87830467 C58.9175374,6.87830467 58.253514,7.18329218 57.6988743,7.79326718 C57.1442346,8.40324219 56.8675581,9.26158255 56.8675581,10.3142398 L56.8675581,19.1279926 L53.9296405,19.1279926 L53.9296405,10.2589046 C53.9296405,7.98629725 52.9336054,6.87830467 50.9930098,6.87830467 C50.0510231,6.87830467 49.2750422,7.23862746 48.7204025,7.95927304 C48.1104275,8.65160754 47.8337511,9.51123477 47.8337511,10.5085568 L47.8337511,19.1279926 L44.8958335,19.1279926 L44.8958335,4.8000143 L47.8337511,4.8000143 L47.8337511,6.3802871 C48.9970789,5.04966652 50.3276995,4.41138043 51.7689907,4.41138043 C53.8743053,4.41138043 55.3992428,5.21567237 56.2858942,6.82296939 C56.9228934,5.93631795 57.6165148,5.29803187 58.3358735,4.93899595 C59.0011838,4.57867316 59.8054757,4.41138043 60.7744867,4.41138043 Z M77.0604333,12.7879845 L74.0401562,12.8716308 C71.3518908,12.9269661 70.0212702,13.8689528 70.0212702,15.6422557 C70.0212702,16.1968954 70.2438983,16.6408646 70.7148916,16.9999005 C71.1575739,17.3602233 71.7675489,17.5545402 72.5152187,17.5545402 C73.7621929,17.5545402 74.8161371,17.1671932 75.7027885,16.4182366 C76.5894399,15.6705668 77.0604333,14.7272932 77.0604333,13.6193006 L77.0604333,13.6193006 L77.0604333,12.7879845 Z M101.685279,7.10646621 C100.439591,7.10646621 99.3856473,7.49510007 98.4989958,8.24276986 C97.6123444,8.99043965 97.141351,9.93371324 97.141351,11.0417058 L97.141351,11.0417058 L97.141351,11.873022 L100.161628,11.7906625 C102.849894,11.7340403 104.179227,10.7920536 104.179227,9.01875073 C104.179227,8.46539787 103.957886,8.02142872 103.486893,7.66110593 C103.042924,7.30078314 102.434235,7.10646621 101.685279,7.10646621 Z M94.1240337,5.20807986 L91.5605945,11.6449891 L88.5506123,11.6449891 L90.9094397,5.20807986 L94.1240337,5.20807986 Z" id="Combined-Shape" fill="#2A2860"></path>
        </g>
    </g>
</svg>